<svg xmlns="http://www.w3.org/2000/svg" viewBox="0 0 800 103">
  <style>
    @keyframes twinkle {
      0%, 62% { opacity: 1; }
      63%, 100% { opacity: 0; }
    }
  </style>

  <!-- CORNER HOOKS going up -->
  <rect x="0" y="0" width="3" height="60" fill="#5fc8e8"/>
  <rect x="797" y="0" width="3" height="60" fill="#5fc8e8"/>

  <!-- Blue separator line -->
  <rect y="60" width="800" height="3" fill="#5fc8e8"/>
  <!-- Black background -->
  <rect y="63" width="800" height="40" fill="#000000"/>

  <!-- Stars in black area -->
  <circle cx="18" cy="72" r="1.2" fill="#ffffff" style="animation: twinkle 1.9s 0.2s infinite"/>
  <circle cx="55" cy="82" r="1" fill="#5fc8e8" style="animation: twinkle 2.3s 0.7s infinite"/>
  <circle cx="95" cy="70" r="1.3" fill="#ffffff" style="animation: twinkle 1.6s 1.1s infinite"/>
  <circle cx="140" cy="90" r="1" fill="#ffffff" style="animation: twinkle 2.1s 0.4s infinite"/>
  <circle cx="185" cy="76" r="1.2" fill="#5fc8e8" style="animation: twinkle 1.8s 0.9s infinite"/>
  <circle cx="230" cy="96" r="1" fill="#ffffff" style="animation: twinkle 2.4s 0.3s infinite"/>
  <circle cx="275" cy="70" r="1.4" fill="#ffffff" style="animation: twinkle 1.7s 0.8s infinite"/>
  <circle cx="320" cy="85" r="1" fill="#5fc8e8" style="animation: twinkle 2.0s 1.3s infinite"/>
  <circle cx="365" cy="74" r="1.1" fill="#ffffff" style="animation: twinkle 1.9s 0.5s infinite"/>
  <circle cx="410" cy="93" r="1.3" fill="#ffffff" style="animation: twinkle 2.2s 0s infinite"/>
  <circle cx="455" cy="69" r="1" fill="#5fc8e8" style="animation: twinkle 1.6s 0.6s infinite"/>
  <circle cx="500" cy="82" r="1.2" fill="#ffffff" style="animation: twinkle 2.3s 1.0s infinite"/>
  <circle cx="545" cy="98" r="1" fill="#ffffff" style="animation: twinkle 1.8s 0.4s infinite"/>
  <circle cx="590" cy="73" r="1.4" fill="#5fc8e8" style="animation: twinkle 2.1s 0.9s infinite"/>
  <circle cx="635" cy="88" r="1" fill="#ffffff" style="animation: twinkle 1.7s 0.2s infinite"/>
  <circle cx="678" cy="71" r="1.2" fill="#ffffff" style="animation: twinkle 2.4s 0.7s infinite"/>
  <circle cx="720" cy="92" r="1" fill="#5fc8e8" style="animation: twinkle 1.9s 1.2s infinite"/>
  <circle cx="762" cy="76" r="1.3" fill="#ffffff" style="animation: twinkle 2.2s 0.5s infinite"/>
  <circle cx="788" cy="98" r="1" fill="#ffffff" style="animation: twinkle 1.6s 0.3s infinite"/>
  <circle cx="35" cy="99" r="1.1" fill="#5fc8e8" style="animation: twinkle 2.0s 1.0s infinite"/>
  <circle cx="250" cy="100" r="1" fill="#ffffff" style="animation: twinkle 1.8s 0.6s infinite"/>
  <circle cx="480" cy="100" r="1.2" fill="#ffffff" style="animation: twinkle 2.3s 0.1s infinite"/>
  <circle cx="700" cy="101" r="1" fill="#5fc8e8" style="animation: twinkle 1.7s 0.8s infinite"/>
</svg>
